<mxfile host="65bd71144e">
    <diagram id="sFHB_UooNWzqU18YnjZd" name="Page-1">
        <mxGraphModel dx="824" dy="626" grid="1" gridSize="10" guides="1" tooltips="1" connect="1" arrows="1" fold="1" page="1" pageScale="1" pageWidth="850" pageHeight="1100" math="0" shadow="0">
            <root>
                <mxCell id="0"/>
                <mxCell id="1" parent="0"/>
                <mxCell id="4" value="" style="edgeStyle=none;html=1;" edge="1" parent="1" source="2" target="3">
                    <mxGeometry relative="1" as="geometry"/>
                </mxCell>
                <mxCell id="2" value="Welcome to Treasure Island. &lt;br&gt;Your mission is to find the treasure" style="rounded=1;whiteSpace=wrap;html=1;" vertex="1" parent="1">
                    <mxGeometry x="220" y="30" width="230" height="60" as="geometry"/>
                </mxCell>
                <mxCell id="6" value="" style="edgeStyle=none;html=1;" edge="1" parent="1" source="3" target="5">
                    <mxGeometry relative="1" as="geometry"/>
                </mxCell>
                <mxCell id="9" value="" style="edgeStyle=none;html=1;" edge="1" parent="1" source="3" target="8">
                    <mxGeometry relative="1" as="geometry"/>
                </mxCell>
                <mxCell id="3" value="left or right?" style="rhombus;whiteSpace=wrap;html=1;rounded=1;" vertex="1" parent="1">
                    <mxGeometry x="295" y="160" width="80" height="80" as="geometry"/>
                </mxCell>
                <mxCell id="5" value="Fall into hole. Game over" style="whiteSpace=wrap;html=1;rounded=1;" vertex="1" parent="1">
                    <mxGeometry x="460" y="170" width="120" height="60" as="geometry"/>
                </mxCell>
                <mxCell id="7" value="Right or anything else" style="text;html=1;strokeColor=none;fillColor=none;align=center;verticalAlign=middle;whiteSpace=wrap;rounded=0;" vertex="1" parent="1">
                    <mxGeometry x="360" y="150" width="80" height="30" as="geometry"/>
                </mxCell>
                <mxCell id="11" value="" style="edgeStyle=none;html=1;" edge="1" parent="1" source="8" target="10">
                    <mxGeometry relative="1" as="geometry"/>
                </mxCell>
                <mxCell id="15" value="" style="edgeStyle=none;html=1;" edge="1" parent="1" source="8" target="14">
                    <mxGeometry relative="1" as="geometry"/>
                </mxCell>
                <mxCell id="8" value="swim or wait" style="rhombus;whiteSpace=wrap;html=1;rounded=1;" vertex="1" parent="1">
                    <mxGeometry x="295" y="320" width="80" height="80" as="geometry"/>
                </mxCell>
                <mxCell id="10" value="Attacked by trout. Game over" style="whiteSpace=wrap;html=1;rounded=1;" vertex="1" parent="1">
                    <mxGeometry x="460" y="330" width="120" height="60" as="geometry"/>
                </mxCell>
                <mxCell id="12" value="swim or anything else" style="text;html=1;strokeColor=none;fillColor=none;align=center;verticalAlign=middle;whiteSpace=wrap;rounded=0;" vertex="1" parent="1">
                    <mxGeometry x="370" y="320" width="80" height="30" as="geometry"/>
                </mxCell>
                <mxCell id="13" value="left" style="text;html=1;strokeColor=none;fillColor=none;align=center;verticalAlign=middle;whiteSpace=wrap;rounded=0;" vertex="1" parent="1">
                    <mxGeometry x="260" y="240" width="60" height="30" as="geometry"/>
                </mxCell>
                <mxCell id="18" value="" style="edgeStyle=none;html=1;" edge="1" parent="1" source="14" target="17">
                    <mxGeometry relative="1" as="geometry"/>
                </mxCell>
                <mxCell id="21" value="" style="edgeStyle=none;html=1;" edge="1" parent="1" source="14" target="20">
                    <mxGeometry relative="1" as="geometry"/>
                </mxCell>
                <mxCell id="24" value="" style="edgeStyle=none;html=1;" edge="1" parent="1" source="14" target="23">
                    <mxGeometry relative="1" as="geometry"/>
                </mxCell>
                <mxCell id="26" style="edgeStyle=none;html=1;exitX=0.879;exitY=0.617;exitDx=0;exitDy=0;exitPerimeter=0;" edge="1" parent="1" source="14">
                    <mxGeometry relative="1" as="geometry">
                        <mxPoint x="530" y="650" as="targetPoint"/>
                        <Array as="points">
                            <mxPoint x="365" y="560"/>
                            <mxPoint x="530" y="560"/>
                        </Array>
                    </mxGeometry>
                </mxCell>
                <mxCell id="14" value="which door?" style="rhombus;whiteSpace=wrap;html=1;rounded=1;" vertex="1" parent="1">
                    <mxGeometry x="295" y="480" width="80" height="80" as="geometry"/>
                </mxCell>
                <mxCell id="16" value="wait" style="text;html=1;strokeColor=none;fillColor=none;align=center;verticalAlign=middle;whiteSpace=wrap;rounded=0;" vertex="1" parent="1">
                    <mxGeometry x="270" y="400" width="60" height="30" as="geometry"/>
                </mxCell>
                <mxCell id="17" value="Eaten by beasts. Gane over" style="whiteSpace=wrap;html=1;rounded=1;" vertex="1" parent="1">
                    <mxGeometry x="460" y="490" width="120" height="60" as="geometry"/>
                </mxCell>
                <mxCell id="19" value="blue" style="text;html=1;strokeColor=none;fillColor=none;align=center;verticalAlign=middle;whiteSpace=wrap;rounded=0;" vertex="1" parent="1">
                    <mxGeometry x="375" y="480" width="60" height="30" as="geometry"/>
                </mxCell>
                <mxCell id="20" value="Burned by fire. Game over" style="whiteSpace=wrap;html=1;rounded=1;" vertex="1" parent="1">
                    <mxGeometry x="90" y="490" width="120" height="60" as="geometry"/>
                </mxCell>
                <mxCell id="22" value="red" style="text;html=1;strokeColor=none;fillColor=none;align=center;verticalAlign=middle;whiteSpace=wrap;rounded=0;" vertex="1" parent="1">
                    <mxGeometry x="235" y="480" width="60" height="30" as="geometry"/>
                </mxCell>
                <mxCell id="23" value="You win !" style="whiteSpace=wrap;html=1;rounded=1;" vertex="1" parent="1">
                    <mxGeometry x="275" y="650" width="120" height="60" as="geometry"/>
                </mxCell>
                <mxCell id="25" value="yellow" style="text;html=1;strokeColor=none;fillColor=none;align=center;verticalAlign=middle;whiteSpace=wrap;rounded=0;" vertex="1" parent="1">
                    <mxGeometry x="335" y="570" width="60" height="30" as="geometry"/>
                </mxCell>
                <mxCell id="27" value="Game over !" style="whiteSpace=wrap;html=1;rounded=1;" vertex="1" parent="1">
                    <mxGeometry x="470" y="650" width="120" height="60" as="geometry"/>
                </mxCell>
                <mxCell id="28" value="anything else" style="text;html=1;strokeColor=none;fillColor=none;align=center;verticalAlign=middle;whiteSpace=wrap;rounded=0;" vertex="1" parent="1">
                    <mxGeometry x="435" y="570" width="60" height="30" as="geometry"/>
                </mxCell>
            </root>
        </mxGraphModel>
    </diagram>
</mxfile>